<svg id="レイヤー_1" data-name="レイヤー 1" xmlns="http://www.w3.org/2000/svg" viewBox="0 0 27 27"><defs><style>.cls-1{fill:#3c4558;}.cls-2{fill:#fff;}</style></defs><g id="Dark_Blue" data-name="Dark Blue"><path class="cls-1" d="M23.62,27H3.38A3.38,3.38,0,0,1,0,23.62V3.38A3.38,3.38,0,0,1,3.38,0H23.62A3.38,3.38,0,0,1,27,3.38V23.62A3.38,3.38,0,0,1,23.62,27Z"/></g><path class="cls-2" d="M13.5,6.12c2.4,0,2.69,0,3.64,0a5.12,5.12,0,0,1,1.67.31,3.08,3.08,0,0,1,1.71,1.71,5.12,5.12,0,0,1,.31,1.67c0,1,.05,1.24.05,3.64s0,2.69-.05,3.64a5.12,5.12,0,0,1-.31,1.67,3.08,3.08,0,0,1-1.71,1.71,5.12,5.12,0,0,1-1.67.31c-.95,0-1.24.05-3.64.05s-2.69,0-3.64-.05a5.12,5.12,0,0,1-1.67-.31,3.08,3.08,0,0,1-1.71-1.71,5.12,5.12,0,0,1-.31-1.67c0-.95,0-1.24,0-3.64s0-2.69,0-3.64a5.12,5.12,0,0,1,.31-1.67A3.08,3.08,0,0,1,8.19,6.48a5.12,5.12,0,0,1,1.67-.31c1,0,1.24,0,3.64,0m0-1.62c-2.44,0-2.75,0-3.71,0A6.9,6.9,0,0,0,7.6,5,4.64,4.64,0,0,0,5,7.6a6.9,6.9,0,0,0-.42,2.19c0,1,0,1.27,0,3.71s0,2.75,0,3.71A6.9,6.9,0,0,0,5,19.4,4.64,4.64,0,0,0,7.6,22a6.9,6.9,0,0,0,2.19.42c1,0,1.27.05,3.71.05s2.75,0,3.71-.05A6.9,6.9,0,0,0,19.4,22,4.64,4.64,0,0,0,22,19.4a6.9,6.9,0,0,0,.42-2.19c0-1,.05-1.27.05-3.71s0-2.75-.05-3.71A6.9,6.9,0,0,0,22,7.6,4.64,4.64,0,0,0,19.4,5a6.9,6.9,0,0,0-2.19-.42c-1,0-1.27,0-3.71,0Z"/><path class="cls-2" d="M13.5,8.88a4.62,4.62,0,1,0,4.62,4.62A4.62,4.62,0,0,0,13.5,8.88Zm0,7.62a3,3,0,1,1,3-3A3,3,0,0,1,13.5,16.5Z"/><circle class="cls-2" cx="18.3" cy="8.7" r="1.08"/></svg>