<svg id="レイヤー_1" data-name="レイヤー 1" xmlns="http://www.w3.org/2000/svg" viewBox="0 0 27 27"><defs><style>.cls-1{fill:#3c4558;}.cls-2{fill:#fff;}</style></defs><g id="Dark_Blue" data-name="Dark Blue"><path class="cls-1" d="M23.62,27H3.38A3.38,3.38,0,0,1,0,23.62V3.38A3.38,3.38,0,0,1,3.38,0H23.62A3.38,3.38,0,0,1,27,3.38V23.62A3.38,3.38,0,0,1,23.62,27Z"/></g><g id="Logo_FIXED" data-name="Logo — FIXED"><path class="cls-2" d="M10.36,20.36a9.78,9.78,0,0,0,9.85-9.85v-.45a7,7,0,0,0,1.72-1.79,7,7,0,0,1-2,.55A3.48,3.48,0,0,0,21.47,6.9a7,7,0,0,1-2.2.84,3.46,3.46,0,0,0-5.9,3.15A9.83,9.83,0,0,1,6.23,7.28,3.5,3.5,0,0,0,5.77,9,3.46,3.46,0,0,0,7.31,11.9a3.6,3.6,0,0,1-1.57-.43v0a3.47,3.47,0,0,0,2.78,3.39A3.52,3.52,0,0,1,7.6,15,3.39,3.39,0,0,1,7,15a3.43,3.43,0,0,0,3.23,2.4,6.9,6.9,0,0,1-4.3,1.49,5.56,5.56,0,0,1-.82-.05,9.82,9.82,0,0,0,5.29,1.55"/></g></svg>