<svg id="レイヤー_1" data-name="レイヤー 1" xmlns="http://www.w3.org/2000/svg" viewBox="0 0 27 27"><defs><style>.cls-1{fill:#3c4558;}.cls-2{fill:#fff;}</style></defs><g id="Dark_Blue" data-name="Dark Blue"><path class="cls-1" d="M23.62,27H3.38A3.38,3.38,0,0,1,0,23.62V3.38A3.38,3.38,0,0,1,3.38,0H23.62A3.38,3.38,0,0,1,27,3.38V23.62A3.38,3.38,0,0,1,23.62,27Z"/></g><path id="f" class="cls-2" d="M18.62,27V16.56h3.52l.53-4.09H18.62V9.87c0-1.18.33-2,2-2h2.16V4.24a29.88,29.88,0,0,0-3.14-.16c-3.12,0-5.24,1.9-5.24,5.38v3H10.92v4.09h3.51V27Z"/></svg>